# xmcd CD database file
#
# Track frame offsets:
#	150
#	8828
#	27748
#	44010
#	60228
#	77566
#	89095
#	105047
#	119719
#	132669
#	146372
#	158016
#	173286
#	183498
#	194867
#	207388
#	222756
#	237812
#	250403
#	279545
#
# Disc length: 3862 seconds
#
# Revision: 0
# Processed by: cddbd v1.4PL0 Copyright (c) Steve Scherf et al.
# Submitted via: CdAid 2001.05.15.01
#
DISCID=210f1414
DTITLE=Ray Charles - 20 Golden Hits
DYEAR=1900
DGENRE=
TTITLE0=Hit The Road Jack
TTITLE1=I Can't Stop Loving You
TTITLE2=Georgia on My Mind
TTITLE3=You Cheatin Hearth
TTITLE4=Ruby
TTITLE5=Hallelujah I Love Her
TTITLE6=Sweet Memories
TTITLE7=You Don't Know Me
TTITLE8=I Got a Woman
TTITLE9=A Fool For You
TTITLE10=Lonely a Venue
TTITLE11=Just For a Thrill
TTITLE12=Swanee River Rock (Talkin About That River)
TTITLE13=This Little Girl Of Mine
TTITLE14=That's Enough
TTITLE15=(Night Times Is) The Right Time
TTITLE16=Drown In My Own Tears
TTITLE17=Unchain My Heart
TTITLE18=What'd I Say
TTITLE19=I'm Moving On
EXTD=
EXTT0=
EXTT1=
EXTT2=
EXTT3=
EXTT4=
EXTT5=
EXTT6=
EXTT7=
EXTT8=
EXTT9=
EXTT10=
EXTT11=
EXTT12=
EXTT13=
EXTT14=
EXTT15=
EXTT16=
EXTT17=
EXTT18=
EXTT19=
PLAYORDER=
